<svg id="Layer_1" data-name="Layer 1" xmlns="http://www.w3.org/2000/svg" viewBox="0 0 1080 737"><defs><style>.cls-1{fill:#eee;}.cls-2{fill:#00adb5;}.cls-3{fill:none;stroke:#eee;stroke-miterlimit:10;stroke-width:15px;}</style></defs><path class="cls-1" d="M137.7,429.73c14.36,2.56,25,16.06,25,28.37,0,20.34-16.92,33.67-42.39,33.67H70.19V372l45,.17c24.27,0,42.05,12.31,42.05,32.65C157.19,414.86,150.52,425.28,137.7,429.73Zm-30.08-7.35c18.8,0,22.73-8.55,22.73-16.41,0-8.55-7.18-12.82-15.21-12.82H96.68v29.23ZM96.68,440.84v29.91h23.59c8.89,0,15.55-5.13,15.55-13.16s-3.25-16.75-25.3-16.75Z"/><path class="cls-2" d="M239.91,402.21c25.64,0,48.2,18.46,48.2,45.63,0,27.35-22.56,45.81-48.2,45.81-25.47,0-48.2-18.29-48.2-45.81C191.71,420.5,214.44,402.21,239.91,402.21Zm0,69.56a23.84,23.84,0,1,0-23.42-23.93A23.57,23.57,0,0,0,239.91,471.77Z"/><path class="cls-2" d="M364.34,402.21c25.64,0,48.2,18.46,48.2,45.63,0,27.35-22.56,45.81-48.2,45.81-25.47,0-48.2-18.29-48.2-45.81C316.14,420.5,338.87,402.21,364.34,402.21Zm0,69.56a23.84,23.84,0,1,0-23.42-23.93A23.57,23.57,0,0,0,364.34,471.77Z"/><path class="cls-1" d="M496.29,404.09h28.2v3.42l-29.05,36.57,11.45,18.29c3.93,6,7,7.87,12,7.87a18.73,18.73,0,0,0,9.4-3.08l9.58,17.95a32.93,32.93,0,0,1-22.91,8.54c-9.91,0-19-3.24-26-13.33L471.34,452v39.82H445.87V368.19h25.47v71.45Z"/><path class="cls-1" d="M70.19,669.55V549.9h79.48v21h-53v29.4h46v21h-46v27.18h53v21Z"/><path class="cls-1" d="M225.89,642l-21,27.52H175.81v-3.42l34.87-41.87-31.62-39.49v-2.9H208.8L225.89,606l17.1-24.1h29.74v2.9l-31.62,39.49L276,666.13v3.42H246.92Z"/><path class="cls-1" d="M344.52,580c9.05,0,20.85,1.88,35.89,13l-11.62,18.63a35.08,35.08,0,0,0-23.08-8.72c-14.87,0-24.78,9.4-24.78,22.73s9.91,22.74,24.78,22.74a35.08,35.08,0,0,0,23.08-8.72l11.62,18.63c-15,11.11-26.84,13-35.89,13-30.09,0-49.06-19.66-49.06-45.64S314.43,580,344.52,580Z"/><path class="cls-1" d="M412.54,546H438v47.86c7.35-10.26,16.58-13.84,27.17-13.84,24.62,0,31.28,19.65,31.28,41.87v47.69H471V622.38c0-12.14-4.45-21.37-16.24-21.37S438,610.41,438,622.55v47H412.54Z"/><path class="cls-1" d="M625,581.87v87.68H599.53V656.73c-6.32,9.06-14.7,14.7-27.52,14.7-26.66,0-42.73-20.51-42.73-46.15,0-24.61,14.87-45.29,42.22-45.29a35.12,35.12,0,0,1,28,13.84v-12Zm-47.69,68.88c12.48,0,22.9-8,22.9-23.93,0-16.24-9.74-26.15-23.58-26.15-14,0-21.88,11.28-21.88,24.78C554.75,639.47,563.29,650.75,577.31,650.75Z"/><path class="cls-1" d="M664,581.87h25.47v12C696.78,583.57,706,580,716.61,580c24.61,0,31.28,19.65,31.28,41.87v47.69H722.42V622.38c0-12.14-4.44-21.37-16.24-21.37s-16.75,9.4-16.75,21.54v47H664Z"/><path class="cls-1" d="M876.42,663.4c0,34.53-22.56,48-47.52,48-19.48,0-32.64-5-41.53-12.14l10.08-19.82c5.13,4.44,16.58,9.91,26.33,9.91,13.16,0,27.17-3.93,27.17-23.08v-9.57c-6.32,9.06-14.7,14.7-27.52,14.7-26.66,0-42.73-20.51-42.73-46.15,0-24.61,14.87-45.29,42.22-45.29a35.1,35.1,0,0,1,28,13.84v-12h25.47Zm-47.69-12.65c12.48,0,22.91-8,22.91-23.93,0-16.24-9.75-26.15-23.59-26.15-14,0-21.88,11.28-21.88,24.78C806.17,639.47,814.72,650.75,828.73,650.75Z"/><path class="cls-1" d="M1001.2,654.17c-12.48,13.67-29.06,17.26-40.86,17.26-32.47,0-50.25-20.34-50.25-45.29,0-25.81,20.17-46.15,48.37-46.15,24.27,0,47.52,16.75,47.52,51.62H935.39c.51,10.93,10.6,19,26.83,19,9.06,0,18.12-4.62,24.28-10.43Zm-65.3-37.95h43.93c-1.71-11.28-13.16-15.55-21.71-15.55C949.92,600.67,939,604.43,935.9,616.22Z"/><path class="cls-3" d="M630,70.56H75V199.63H630a64.72,64.72,0,0,0,64.53-64.53h0A64.72,64.72,0,0,0,630,70.56Z"/><path class="cls-3" d="M630,198.51H75V327.58H630A64.72,64.72,0,0,0,694.54,263h0A64.72,64.72,0,0,0,630,198.51Z"/><polygon class="cls-2" points="651.15 534.09 597.27 490.69 547.89 534.09 547.89 314.11 651.15 314.11 651.15 534.09"/></svg>